{"title":"Melanie Rios - On The Job Training - BarelyLegal","uid":10311841,"size":414356958,"categoryP":"porn","categoryS":"movie_clips","magnet":"?xt=urn:btih:8f110c1ec5f9cc999fd03b8c55fea651df565aba&amp;dn=Melanie+Rios+-+On+The+Job+Training+-+BarelyLegal&amp;tr=udp%3A%2F%2Ftracker.openbittorrent.com%3A80&amp;tr=udp%3A%2F%2Fopen.demonii.com%3A1337&amp;tr=udp%3A%2F%2Ftracker.coppersurfer.tk%3A6969&amp;tr=udp%3A%2F%2Fexodus.desync.com%3A6969","seeders":6,"leechers":2,"uploader":"athklym","files":-1,"time":1402191331,"description":" &lt;a href=&quot;http://bayimg.com/dAolOAafj&quot; rel=&quot;nofollow&quot; target=&quot;_NEW&quot;&gt;http://bayimg.com/dAolOAafj&lt;/a&gt;\nMelanie_Rios_On_The_Job_Training_BarelyLegal.mp4\nFormat                                   : MPEG-4\nFormat profile                           : QuickTime\nCodec ID                                 : qt  \nFile size                                : 395 MiB\nDuration                                 : 18mn 17s\nOverall bit rate                         : 3 020 Kbps\nEncoded date                             : UTC 2013-01-22 20:39:37\nTagged date                              : UTC 2013-01-22 23:00:30\nWriting library                          : Apple QuickTime\nMedia/UUID                               : D3B9B7AB-FFBB-47BF-8C4B-8ECC91E72477\nMedia/History/UUID                       : 6C83D620-BBE3-405D-AAFA-324836D049F8\n\nVideo\nID                                       : 1\nFormat                                   : AVC\nFormat/Info                              : Advanced Video Codec\nFormat profile                           : &lt;a class=&quot;__cf_email__&quot; href=&quot;/cdn-cgi/l/email-protection&quot; data-cfemail=&quot;eea38f8780aea2ddc0df&quot;&gt;[email&amp;#160;protected]&lt;/a&gt;&lt;script cf-hash='f9e31' type=&quot;text/javascript&quot;&gt;\n/* &lt;![CDATA[ */!function(){try{var t=&quot;currentScript&quot;in document?document.currentScript:function(){for(var t=document.getElementsByTagName(&quot;script&quot;),e=t.length;e--;)if(t[e].getAttribute(&quot;cf-hash&quot;))return t[e]}();if(t&amp;&amp;t.previousSibling){var e,r,n,i,c=t.previousSibling,a=c.getAttribute(&quot;data-cfemail&quot;);if(a){for(e=&quot;&quot;,r=parseInt(a.substr(0,2),16),n=2;a.length-n;n+=2)i=parseInt(a.substr(n,2),16)^r,e+=String.fromCharCode(i);e=document.createTextNode(e),c.parentNode.replaceChild(e,c)}}}catch(u){}}();/* ]]&gt; */&lt;/script&gt;\nFormat settings, CABAC                   : No\nFormat settings, ReFrames                : 2 frames\nCodec ID                                 : avc1\nCodec ID/Info                            : Advanced Video Coding\nDuration                                 : 18mn 17s\nBit rate                                 : 2 899 Kbps\nWidth                                    : 1 248 pixels\nOriginal width                           : 1 280 pixels\nHeight                                   : 702 pixels\nOriginal height                          : 720 pixels\nDisplay aspect ratio                     : 16:9\nFrame rate mode                          : Constant\nFrame rate                               : 29.970 fps\nColor space                              : YUV\nChroma subsampling                       : 4:2:0\nBit depth                                : 8 bits\nScan type                                : Progressive\nBits/(Pixel*Frame)                       : 0.110\nStream size                              : 379 MiB (96%)\nLanguage                                 : English\nEncoded date                             : UTC 2013-01-22 22:59:30\nTagged date                              : UTC 2013-01-22 23:00:30\nColor primaries                          : BT.709\nTransfer characteristics                 : BT.709\nMatrix coefficients                      : BT.709\n\nAudio\nID                                       : 2\nFormat                                   : AAC\nFormat/Info                              : Advanced Audio Codec\nFormat profile                           : LC\nCodec ID                                 : 40\nDuration                                 : 18mn 17s\nBit rate mode                            : Constant\nBit rate                                 : 115 Kbps\nNominal bit rate                         : 128 Kbps\nChannel(s)                               : 2 channels\nChannel positions                        : Front: L R\nSampling rate                            : 44.1 KHz\nCompression mode                         : Lossy\nStream size                              : 15.1 MiB (4%)\nLanguage                                 : English\nEncoded date                             : UTC 2013-01-22 22:59:30\nTagged date                              : UTC 2013-01-22 23:00:30\n\n","torrent":{"xt":"urn:btih:8f110c1ec5f9cc999fd03b8c55fea651df565aba","amp;dn":"Melanie+Rios+-+On+The+Job+Training+-+BarelyLegal","amp;tr":["udp%3A%2F%2Ftracker.openbittorrent.com%3A80","udp%3A%2F%2Fopen.demonii.com%3A1337","udp%3A%2F%2Ftracker.coppersurfer.tk%3A6969","udp%3A%2F%2Fexodus.desync.com%3A6969"],"infoHash":"8f110c1ec5f9cc999fd03b8c55fea651df565aba","infoHashBuffer":{"type":"Buffer","data":[143,17,12,30,197,249,204,153,159,208,59,140,85,254,166,81,223,86,90,186]},"announce":[],"urlList":[]}}